<svg xmlns="http://www.w3.org/2000/svg" xmlns:xlink="http://www.w3.org/1999/xlink" viewBox="0 0 308.85 102.09"><defs><style>.cls-1,.cls-2,.cls-3,.cls-6{fill:none;}.cls-1{clip-rule:evenodd;}.cls-2,.cls-5{fill-rule:evenodd;}.cls-3,.cls-6{stroke:#7f7f7f;}.cls-3{stroke-linecap:round;stroke-linejoin:round;stroke-width:9.76px;}.cls-4{clip-path:url(#clip-path);}.cls-5{fill:#7f7f7f;}.cls-6{stroke-miterlimit:8;stroke-width:0.75px;}</style><clipPath id="clip-path" transform="translate(-0.01 0)"><polygon class="cls-1" points="0 102.09 308.86 102.09 308.86 0 0 0 0 102.09 0 102.09"/></clipPath></defs><title>资源 10</title><g id="图层_2" data-name="图层 2"><g id="图层_1-2" data-name="图层 1"><polygon class="cls-3" points="4.88 4.88 303.97 4.88 303.97 97.21 4.88 97.21 4.88 4.88 4.88 4.88"/><g class="cls-4"><polygon class="cls-5" points="28.93 21.39 75.52 21.39 75.52 80.7 28.93 80.7 28.93 21.39 28.93 21.39"/><polygon class="cls-6" points="28.93 21.39 75.52 21.39 75.52 80.7 28.93 80.7 28.93 21.39 28.93 21.39"/><g class="cls-4"><polygon class="cls-5" points="96.56 21.39 143.9 21.39 143.9 80.7 96.56 80.7 96.56 21.39 96.56 21.39"/><polygon class="cls-6" points="96.56 21.39 143.9 21.39 143.9 80.7 96.56 80.7 96.56 21.39 96.56 21.39"/><g class="cls-4"><polygon class="cls-5" points="164.94 21.39 212.29 21.39 212.29 80.7 164.94 80.7 164.94 21.39 164.94 21.39"/><polygon class="cls-6" points="164.94 21.39 212.29 21.39 212.29 80.7 164.94 80.7 164.94 21.39 164.94 21.39"/><g class="cls-4"><polygon class="cls-5" points="233.33 21.39 279.92 21.39 279.92 80.7 233.33 80.7 233.33 21.39 233.33 21.39"/><polygon class="cls-6" points="233.33 21.39 279.92 21.39 279.92 80.7 233.33 80.7 233.33 21.39 233.33 21.39"/></g></g></g></g></g></g></svg>