<svg xmlns="http://www.w3.org/2000/svg" xmlns:xlink="http://www.w3.org/1999/xlink" viewBox="0 0 693.47 220.83"><defs><style>.cls-1,.cls-2,.cls-3,.cls-6{fill:none;}.cls-1{clip-rule:evenodd;}.cls-2,.cls-5{fill-rule:evenodd;}.cls-3,.cls-6{stroke:#7f7f7f;}.cls-3{stroke-linecap:round;stroke-linejoin:round;stroke-width:9.76px;}.cls-4{clip-path:url(#clip-path);}.cls-5{fill:#7f7f7f;}.cls-6{stroke-miterlimit:8;stroke-width:0.75px;}</style><clipPath id="clip-path" transform="translate(-6.29 -6.27)"><polygon class="cls-1" points="0 233.38 706.05 233.38 706.05 0 0 0 0 233.38 0 233.38"/></clipPath></defs><title>资源 6</title><g id="图层_2" data-name="图层 2"><g id="图层_1-2" data-name="图层 1"><polygon class="cls-3" points="4.88 4.88 688.6 4.88 688.6 215.95 4.88 215.95 4.88 4.88 4.88 4.88"/><g class="cls-4"><polygon class="cls-5" points="59.85 42.63 166.36 42.63 166.36 178.2 59.85 178.2 59.85 42.63 59.85 42.63"/><polygon class="cls-6" points="59.85 42.63 166.36 42.63 166.36 178.2 59.85 178.2 59.85 42.63 59.85 42.63"/><g class="cls-4"><polygon class="cls-5" points="214.46 42.63 322.69 42.63 322.69 178.2 214.46 178.2 214.46 42.63 214.46 42.63"/><polygon class="cls-6" points="214.46 42.63 322.69 42.63 322.69 178.2 214.46 178.2 214.46 42.63 214.46 42.63"/></g></g></g></g></svg>